<svg width="73" height="89" viewBox="0 0 73 89" fill="none" xmlns="http://www.w3.org/2000/svg">
<mask id="mask0_42_449" style="mask-type:alpha" maskUnits="userSpaceOnUse" x="14" y="43" width="46" height="46">
<circle cx="37" cy="66" r="21.5" stroke="black" stroke-width="3"/>
</mask>
<g mask="url(#mask0_42_449)">
<circle cx="36.5" cy="36.5" r="36.5" fill="black"/>
</g>
<circle cx="36.5" cy="27.5" r="11" stroke="black" stroke-width="3"/>
<mask id="path-4-inside-1_42_449" fill="white">
<path d="M65.0536 16.5066C65.7967 15.9863 66.8243 16.165 67.3107 16.9307C71.9221 24.1908 73.8312 32.865 72.6666 41.4221C71.428 50.5228 66.804 58.8221 59.7168 64.6643C52.6297 70.5065 43.6006 73.462 34.4307 72.9413C25.2608 72.4206 16.6243 68.4619 10.2441 61.855C3.86388 55.2481 0.209042 46.4787 0.00868551 37.2962C-0.191671 28.1137 3.07718 19.1933 9.16313 12.3143C15.2491 5.43544 23.7047 1.10383 32.8432 0.183646C41.4357 -0.68157 50.038 1.52903 57.1326 6.3911C57.8809 6.9039 58.0237 7.93712 57.4778 8.66158C56.9319 9.38604 55.9041 9.52707 55.1536 9.0176C48.721 4.65119 40.9422 2.66973 33.1723 3.45212C24.8563 4.28949 17.1617 8.23125 11.6235 14.4911C6.08524 20.7509 3.11058 28.8685 3.2929 37.2246C3.47523 45.5806 6.80113 53.5608 12.6071 59.5731C18.4131 65.5853 26.2723 69.1877 34.6169 69.6616C42.9615 70.1354 51.1781 67.4459 57.6273 62.1295C64.0766 56.8132 68.2845 49.2608 69.4116 40.9791C70.4647 33.2412 68.7559 25.398 64.6167 18.8169C64.1337 18.0491 64.3105 17.0269 65.0536 16.5066Z"/>
</mask>
<path d="M65.0536 16.5066C65.7967 15.9863 66.8243 16.165 67.3107 16.9307C71.9221 24.1908 73.8312 32.865 72.6666 41.4221C71.428 50.5228 66.804 58.8221 59.7168 64.6643C52.6297 70.5065 43.6006 73.462 34.4307 72.9413C25.2608 72.4206 16.6243 68.4619 10.2441 61.855C3.86388 55.2481 0.209042 46.4787 0.00868551 37.2962C-0.191671 28.1137 3.07718 19.1933 9.16313 12.3143C15.2491 5.43544 23.7047 1.10383 32.8432 0.183646C41.4357 -0.68157 50.038 1.52903 57.1326 6.3911C57.8809 6.9039 58.0237 7.93712 57.4778 8.66158C56.9319 9.38604 55.9041 9.52707 55.1536 9.0176C48.721 4.65119 40.9422 2.66973 33.1723 3.45212C24.8563 4.28949 17.1617 8.23125 11.6235 14.4911C6.08524 20.7509 3.11058 28.8685 3.2929 37.2246C3.47523 45.5806 6.80113 53.5608 12.6071 59.5731C18.4131 65.5853 26.2723 69.1877 34.6169 69.6616C42.9615 70.1354 51.1781 67.4459 57.6273 62.1295C64.0766 56.8132 68.2845 49.2608 69.4116 40.9791C70.4647 33.2412 68.7559 25.398 64.6167 18.8169C64.1337 18.0491 64.3105 17.0269 65.0536 16.5066Z" stroke="black" stroke-width="6" mask="url(#path-4-inside-1_42_449)"/>
<circle cx="61.5" cy="12.5" r="1.5" fill="black"/>
</svg>
