<svg width="92" height="83" viewBox="0 0 92 83" fill="none" xmlns="http://www.w3.org/2000/svg">
<g clip-path="url(#clip0_171_2)">
<circle cx="46" cy="46" r="46" fill="black"/>
<path fill-rule="evenodd" clip-rule="evenodd" d="M18.3996 82.8031V74V71.3V68.6C18.3996 58.6589 26.4585 50.6 36.3996 50.6H55.5996C65.5407 50.6 73.5996 58.6589 73.5996 68.6V71.3V74V82.8037C84.7727 74.4114 92 61.0497 92 46C92 20.5949 71.4051 0 46 0C20.5949 0 0 20.5949 0 46C0 61.0493 7.22692 74.4108 18.3996 82.8031ZM60.95 33.35C60.95 41.6067 54.2567 48.3 46 48.3C37.7433 48.3 31.05 41.6067 31.05 33.35C31.05 25.0933 37.7433 18.4 46 18.4C54.2567 18.4 60.95 25.0933 60.95 33.35Z" fill="white"/>
</g>
<defs>
<clipPath id="clip0_171_2">
<rect width="92" height="83" fill="white"/>
</clipPath>
</defs>
</svg>
