<svg width="43" height="40" viewBox="0 0 43 40" fill="none" xmlns="http://www.w3.org/2000/svg">
<path d="M2.30322 17.8054L21.2104 17.8054" stroke="#434959" stroke-width="3" stroke-linecap="round"/>
<path fill-rule="evenodd" clip-rule="evenodd" d="M23.6966 18.9406C23.7218 18.9198 23.7465 18.898 23.7706 18.8754C24.3744 18.3083 24.3744 17.3887 23.7706 16.8215L16.2481 9.75594C15.6443 9.18878 14.6653 9.18878 14.0614 9.75594C13.4576 10.3231 13.4576 11.2427 14.0614 11.8098L20.4883 17.8463L13.8877 24.046C13.2839 24.6131 13.2839 25.5327 13.8877 26.0998C14.4916 26.667 15.4706 26.667 16.0744 26.0998L23.6966 18.9406Z" fill="#434959"/>
<path fill-rule="evenodd" clip-rule="evenodd" d="M13.9932 1.67177C13.9932 0.927169 14.5968 0.323547 15.3414 0.323547H41.0012C41.7458 0.323547 42.3494 0.927169 42.3494 1.67177C42.3494 2.41638 41.7458 3.02 41.0012 3.02H19.0587C17.9541 3.02 17.0587 3.91543 17.0587 5.02V6.88024C17.0587 7.72676 16.3725 8.41301 15.5259 8.41301C14.6794 8.41301 13.9932 7.72676 13.9932 6.88024V2.53052C13.9932 2.52121 13.9932 2.51192 13.9934 2.50265C13.9983 2.2279 13.9932 1.94657 13.9932 1.67177ZM15.5259 27.2881C14.6794 27.2881 13.9932 27.9744 13.9932 28.8209V33.1706C13.9932 33.2024 13.9941 33.2339 13.996 33.2652C13.9941 33.2946 13.9932 33.3242 13.9932 33.354C13.9932 34.0986 14.5968 34.7022 15.3414 34.7022H15.4652C15.4853 34.703 15.5056 34.7034 15.5259 34.7034C15.5463 34.7034 15.5665 34.703 15.5867 34.7022H26.4399C27.1845 34.7022 27.7881 34.0986 27.7881 33.354C27.7881 32.6094 27.1845 32.0058 26.4399 32.0058H19.0587C17.9541 32.0058 17.0587 31.1103 17.0587 30.0058V28.8209C17.0587 27.9744 16.3725 27.2881 15.5259 27.2881Z" fill="#434959"/>
<path fill-rule="evenodd" clip-rule="evenodd" d="M39.2847 5.4566C39.2847 4.77971 38.6263 4.29837 37.9813 4.50374L29.2526 7.28302C28.8377 7.41512 28.556 7.80048 28.556 8.23588V34.8972C28.556 35.5741 29.2144 36.0555 29.8594 35.8501L38.5881 33.0708C39.003 32.9387 39.2847 32.5534 39.2847 32.118V5.4566ZM42.3495 33.2191C42.3484 33.2558 42.3525 33.2925 42.3614 33.3281C42.5498 34.0737 42.1085 34.8673 41.3757 35.1006L27.789 39.4267C27.7384 39.4428 27.6894 39.4636 27.6409 39.485C27.4519 39.5682 27.243 39.6145 27.0232 39.6145C26.1767 39.6145 25.4905 38.9282 25.4905 38.0817V6.76745L25.4905 6.76177C25.4428 6.0956 25.8641 5.44459 26.516 5.23701L39.1019 1.22958C39.3439 1.15253 39.5373 0.97595 39.7135 0.793038C39.9923 0.503608 40.3839 0.323547 40.8175 0.323547C41.664 0.323547 42.3503 1.00979 42.3503 1.85632V33.1706C42.3503 33.1868 42.35 33.203 42.3495 33.2191Z" fill="#434959"/>
</svg>
