<svg width="23" height="22" viewBox="0 0 23 22" fill="none" xmlns="http://www.w3.org/2000/svg">
<path fill-rule="evenodd" clip-rule="evenodd" d="M1.18416 19.857C0.938615 20.1026 0.938615 20.5007 1.18416 20.7462C1.4297 20.9918 1.8278 20.9918 2.07334 20.7462L11.2615 11.5581L20.4498 20.7464C20.6953 20.992 21.0934 20.992 21.339 20.7464C21.5845 20.5009 21.5845 20.1028 21.339 19.8572L12.1507 10.6689L20.7462 2.07334C20.9918 1.8278 20.9918 1.4297 20.7462 1.18416C20.5007 0.938615 20.1026 0.938614 19.857 1.18416L11.2615 9.77973L2.66609 1.18434C2.42055 0.938795 2.02244 0.938795 1.7769 1.18434C1.53136 1.42988 1.53136 1.82798 1.7769 2.07352L10.3723 10.6689L1.18416 19.857Z" fill="black"/>
<path d="M1.18416 20.7462L0.830602 21.0998H0.830604L1.18416 20.7462ZM1.18416 19.857L0.830603 19.5035L0.830602 19.5035L1.18416 19.857ZM2.07334 20.7462L2.42689 21.0998H2.4269L2.07334 20.7462ZM11.2615 11.5581L11.615 11.2045L11.2615 10.851L10.9079 11.2045L11.2615 11.5581ZM21.339 20.7464L20.9854 20.3929L20.9854 20.3929L21.339 20.7464ZM12.1507 10.6689L11.7971 10.3154L11.4436 10.6689L11.7971 11.0225L12.1507 10.6689ZM20.7462 2.07334L21.0998 2.4269V2.4269L20.7462 2.07334ZM20.7462 1.18416L21.0998 0.830604V0.830603L20.7462 1.18416ZM19.857 1.18416L20.2106 1.53771V1.53771L19.857 1.18416ZM11.2615 9.77973L10.9079 10.1333L11.2615 10.4868L11.615 10.1333L11.2615 9.77973ZM2.66609 1.18434L3.01964 0.830784V0.830784L2.66609 1.18434ZM1.7769 1.18434L1.42335 0.830784V0.830784L1.7769 1.18434ZM1.7769 2.07352L1.42335 2.42708H1.42335L1.7769 2.07352ZM10.3723 10.6689L10.7258 11.0225L11.0794 10.6689L10.7258 10.3154L10.3723 10.6689ZM1.53771 20.3927C1.48743 20.3424 1.48743 20.2609 1.53771 20.2106L0.830602 19.5035C0.389799 19.9443 0.389799 20.659 0.830602 21.0998L1.53771 20.3927ZM1.71979 20.3927C1.66951 20.443 1.58799 20.443 1.53771 20.3927L0.830604 21.0998C1.27141 21.5406 1.98609 21.5406 2.42689 21.0998L1.71979 20.3927ZM10.9079 11.2045L1.71979 20.3927L2.4269 21.0998L11.615 11.9117L10.9079 11.2045ZM20.8033 20.3929L11.615 11.2045L10.9079 11.9117L20.0962 21.1L20.8033 20.3929ZM20.9854 20.3929C20.9351 20.4431 20.8536 20.4431 20.8033 20.3929L20.0962 21.1C20.537 21.5408 21.2517 21.5408 21.6925 21.1L20.9854 20.3929ZM20.9854 20.2108C21.0357 20.2611 21.0357 20.3426 20.9854 20.3929L21.6925 21.1C22.1333 20.6592 22.1333 19.9445 21.6925 19.5037L20.9854 20.2108ZM11.7971 11.0225L20.9854 20.2108L21.6925 19.5037L12.5042 10.3154L11.7971 11.0225ZM20.3927 1.71979L11.7971 10.3154L12.5042 11.0225L21.0998 2.4269L20.3927 1.71979ZM20.3927 1.53771C20.443 1.58799 20.443 1.66951 20.3927 1.71979L21.0998 2.4269C21.5406 1.98609 21.5406 1.27141 21.0998 0.830604L20.3927 1.53771ZM20.2106 1.53771C20.2609 1.48743 20.3424 1.48743 20.3927 1.53771L21.0998 0.830603C20.659 0.3898 19.9443 0.389798 19.5035 0.830604L20.2106 1.53771ZM11.615 10.1333L20.2106 1.53771L19.5035 0.830604L10.9079 9.42617L11.615 10.1333ZM2.31253 1.53789L10.9079 10.1333L11.615 9.42617L3.01964 0.830784L2.31253 1.53789ZM2.13046 1.53789C2.18074 1.48761 2.26225 1.48761 2.31253 1.53789L3.01964 0.830784C2.57884 0.38998 1.86415 0.38998 1.42335 0.830784L2.13046 1.53789ZM2.13046 1.71997C2.08018 1.66969 2.08018 1.58817 2.13046 1.53789L1.42335 0.830784C0.982545 1.27159 0.982545 1.98627 1.42335 2.42708L2.13046 1.71997ZM10.7258 10.3154L2.13046 1.71997L1.42335 2.42708L10.0187 11.0225L10.7258 10.3154ZM1.53771 20.2106L10.7258 11.0225L10.0187 10.3154L0.830603 19.5035L1.53771 20.2106Z" fill="black"/>
</svg>
