<svg width="3000" height="1924" viewBox="0 0 3000 1924" fill="none" xmlns="http://www.w3.org/2000/svg">
<path d="M234.223 1521.25V1514.15H301.239V1521.25H284.32V1543.74H276.264V1521.25H259.491V1543.74H251.435V1521.25H234.223ZM244.55 1503.02V1476.65H252.68V1496.13H293.183V1503.02H244.55ZM319.301 1535.68V1528.58H386.317V1535.68H319.301ZM322.89 1510.12C325.771 1508.95 328.676 1507.43 331.605 1505.58C334.535 1503.72 337.318 1501.6 339.955 1499.21C342.592 1496.81 344.74 1494.15 346.4 1491.22C348.061 1488.25 348.891 1485.32 348.891 1482.43V1478.99H357.021V1482.36C357.021 1485.24 357.851 1488.17 359.511 1491.15C361.22 1494.08 363.417 1496.74 366.103 1499.13C368.788 1501.48 371.547 1503.58 374.379 1505.43C377.26 1507.29 380.092 1508.8 382.875 1509.97L378.334 1515.91C373.695 1513.95 368.861 1511 363.832 1507.04C358.803 1503.04 355.165 1498.94 352.919 1494.74C350.722 1498.94 347.157 1503.04 342.226 1507.04C337.294 1511 332.387 1514.03 327.504 1516.13L322.89 1510.12ZM412.948 1528.72V1522.13H461.435V1544.03H453.378V1528.72H412.948ZM404.379 1514.88V1508.22H433.969V1497.23H442.099V1508.22H471.396V1514.88H404.379ZM408.261 1495.33C412.313 1494.2 416.195 1492.76 419.906 1491C423.666 1489.2 426.962 1487 429.794 1484.41C432.626 1481.78 434.042 1479.16 434.042 1476.58V1474.89H442.172V1476.58C442.172 1479.11 443.637 1481.7 446.566 1484.34C449.496 1486.98 452.816 1489.17 456.527 1490.93C460.238 1492.64 464.022 1494.06 467.88 1495.18L464.071 1501.18C459.481 1499.96 454.623 1497.99 449.496 1495.25C444.418 1492.52 440.634 1489.54 438.144 1486.32C435.751 1489.54 432.089 1492.49 427.157 1495.18C422.226 1497.82 417.196 1499.87 412.069 1501.33L408.261 1495.33ZM489.457 1536.19V1529.09H518.827V1512.17H527.177V1529.09H556.474V1536.19H489.457ZM499.198 1516.35V1478.77H507.255V1490.64H539.042V1478.77H547.172V1516.35H499.198ZM507.255 1509.31H539.042V1497.38H507.255V1509.31Z" fill="#7E0015"/>
<rect x="109" y="1567" width="2891" height="275" fill="#7E0015"/>
<path fill-rule="evenodd" clip-rule="evenodd" d="M611 1474H130V1566.7H515.919L515.737 1566.88H706.263L611 1474Z" fill="#7E0015"/>
<path fill-rule="evenodd" clip-rule="evenodd" d="M590 1474.84H109V1567.54H494.919L494.737 1567.72H685.263L590 1474.84Z" fill="white"/>
<path d="M211.232 1533.22V1525.29H277.298V1533.22H262.206V1557.47H252.658V1533.22H237.566V1557.47H228.095V1533.22H211.232ZM222.474 1517.51V1488.17H232.099V1509.5H269.444V1517.51H222.474ZM377.521 1539.92V1547.85H311.455V1539.92H377.521ZM348.877 1500.8C351.701 1505.98 355.191 1510.3 359.349 1513.74C363.507 1517.18 368.641 1520.02 374.749 1522.28L368.974 1529.52C363.687 1527.62 359.067 1525.08 355.114 1521.9C351.162 1518.66 347.774 1514.81 344.95 1510.35C342.332 1514.87 338.893 1518.77 334.632 1522.05C330.423 1525.29 325.829 1527.8 320.849 1529.6L314.997 1522.36C319.104 1520.87 322.749 1519.18 325.931 1517.28C329.165 1515.38 331.86 1513.15 334.016 1510.58C336.172 1507.96 337.789 1504.96 338.867 1501.57C339.945 1498.18 340.433 1494.25 340.33 1489.79H349.878C349.981 1491.74 349.93 1493.64 349.724 1495.49C349.57 1497.28 349.288 1499.05 348.877 1500.8ZM448.793 1495.72C450.076 1497.41 451.642 1498.98 453.49 1500.41C455.338 1501.85 457.34 1503.14 459.496 1504.26C461.703 1505.39 464.013 1506.37 466.426 1507.19C468.89 1507.96 471.379 1508.53 473.895 1508.88L468.736 1516.43C463.602 1515.4 458.931 1513.76 454.722 1511.5C450.564 1509.19 446.945 1506.47 443.865 1503.34C442.376 1505.09 440.682 1506.7 438.783 1508.19C436.935 1509.68 434.958 1511.02 432.854 1512.2C430.8 1513.38 428.644 1514.38 426.386 1515.2C424.178 1516.02 421.997 1516.64 419.841 1517.05L414.836 1509.81C418.737 1509.04 422.279 1507.91 425.462 1506.42C428.644 1504.93 431.365 1503.19 433.624 1501.18C435.934 1499.13 437.705 1496.87 438.937 1494.41C440.169 1491.89 440.759 1489.25 440.708 1486.48H450.487C450.641 1489.61 450.076 1492.69 448.793 1495.72ZM449.64 1512.2V1520.74H478.515V1528.75H411.063V1520.74H440.015V1512.2H449.64ZM458.572 1558.01V1542.23H420.303V1534.22H468.043V1558.01H458.572ZM558.41 1509.73H531.537V1520.13H558.41V1509.73ZM522.143 1527.9V1490.33H531.614V1501.8H558.333V1490.33H567.881V1527.9H549.863V1539.61H578.045V1547.54H511.979V1539.61H540.161V1527.9H522.143Z" fill="#7E0015"/>
<path d="M151.9 1707V1639.35H241.75V1655.25H170.65V1691.25H242.95V1707H207.1V1732.2H261.85V1747.65H131.65V1732.2H188.2V1707H151.9ZM329.59 1697.55H264.49V1634.25H329.59V1697.55ZM311.29 1682.7V1648.95H282.79V1682.7H311.29ZM388.99 1672.65H368.14V1711.35H349.69V1628.1H368.14V1657.05H388.99V1672.65ZM324.34 1711.5C331.94 1711.5 338.64 1712.25 344.44 1713.75C350.24 1715.15 355.09 1717.15 358.99 1719.75C362.89 1722.25 365.84 1725.25 367.84 1728.75C369.84 1732.25 370.84 1736 370.84 1740C370.84 1743.9 369.84 1747.55 367.84 1750.95C365.84 1754.45 362.89 1757.45 358.99 1759.95C355.09 1762.55 350.24 1764.55 344.44 1765.95C338.64 1767.45 331.94 1768.2 324.34 1768.2C316.74 1768.2 310.04 1767.45 304.24 1765.95C298.54 1764.55 293.74 1762.55 289.84 1759.95C285.94 1757.45 282.99 1754.45 280.99 1750.95C279.09 1747.55 278.14 1743.9 278.14 1740C278.14 1736 279.09 1732.25 280.99 1728.75C282.99 1725.25 285.94 1722.25 289.84 1719.75C293.74 1717.15 298.54 1715.15 304.24 1713.75C310.04 1712.25 316.74 1711.5 324.34 1711.5ZM324.34 1726.5C319.34 1726.5 315.09 1726.9 311.59 1727.7C308.09 1728.4 305.24 1729.4 303.04 1730.7C300.94 1731.9 299.39 1733.3 298.39 1734.9C297.39 1736.5 296.89 1738.2 296.89 1740C296.89 1741.7 297.39 1743.4 298.39 1745.1C299.39 1746.7 300.94 1748.1 303.04 1749.3C305.24 1750.6 308.09 1751.6 311.59 1752.3C315.09 1753.1 319.34 1753.5 324.34 1753.5C329.34 1753.5 333.59 1753.1 337.09 1752.3C340.59 1751.6 343.44 1750.6 345.64 1749.3C347.84 1748.1 349.44 1746.7 350.44 1745.1C351.44 1743.4 351.94 1741.7 351.94 1740C351.94 1738.2 351.44 1736.5 350.44 1734.9C349.44 1733.3 347.84 1731.9 345.64 1730.7C343.44 1729.4 340.59 1728.4 337.09 1727.7C333.59 1726.9 329.34 1726.5 324.34 1726.5ZM384.43 1725.75C393.83 1721.25 401.88 1716.3 408.58 1710.9C415.38 1705.4 421.03 1699.65 425.53 1693.65C430.03 1687.55 433.48 1681.25 435.88 1674.75C438.38 1668.25 440.03 1661.75 440.83 1655.25C429.73 1655.55 418.63 1655.7 407.53 1655.7H391.63V1639.8H415.48C422.58 1639.8 429.78 1639.8 437.08 1639.8C444.48 1639.8 452.43 1639.7 460.93 1639.5C460.23 1650.3 458.58 1660.45 455.98 1669.95C453.38 1679.45 449.53 1688.35 444.43 1696.65C439.33 1704.85 432.88 1712.45 425.08 1719.45C417.28 1726.45 407.88 1732.9 396.88 1738.8L384.43 1725.75ZM516.43 1695.9H494.68V1767.15H476.08V1628.1H494.68V1680H516.43V1695.9ZM519.821 1635.15H586.571V1650.75H538.721V1691.55H552.821C561.421 1691.55 569.721 1691.05 577.721 1690.05C585.821 1688.95 593.471 1687.7 600.671 1686.3V1701.15C597.371 1702.05 593.671 1702.85 589.571 1703.55C585.471 1704.25 581.121 1704.85 576.521 1705.35C571.921 1705.85 567.221 1706.25 562.421 1706.55C557.621 1706.85 552.921 1707 548.321 1707H519.821V1635.15ZM574.571 1676.4V1661.55H608.321V1628.1H626.921V1731.3H608.321V1676.4H574.571ZM629.621 1764.45H538.721V1722H557.171V1748.7H629.621V1764.45ZM679.756 1665.3C678.556 1665.8 677.956 1665.4 677.956 1664.1V1653.15C682.156 1651.35 686.056 1649.05 689.656 1646.25C693.256 1643.35 696.506 1640.15 699.406 1636.65H718.006V1752.75H699.406V1654.65H699.256C696.356 1656.95 693.156 1659 689.656 1660.8C686.256 1662.6 682.956 1664.1 679.756 1665.3ZM778.157 1752.75H758.807L802.307 1652.25H745.607V1637.25H821.357V1652.25L778.157 1752.75ZM943.458 1767.15H926.058V1628.1H943.458V1767.15ZM835.008 1738.95L821.208 1728.45C827.508 1722.85 832.758 1716.75 836.958 1710.15C841.258 1703.55 844.658 1696.45 847.158 1688.85C849.658 1681.25 851.308 1673.1 852.108 1664.4C853.008 1655.7 853.208 1646.4 852.708 1636.5H870.708C870.808 1642.8 870.708 1648.9 870.408 1654.8C870.108 1660.6 869.558 1666.2 868.758 1671.6C871.458 1682.2 875.258 1691.5 880.158 1699.5C885.058 1707.4 890.808 1714.8 897.408 1721.7V1686.45H880.008V1670.7H897.408V1629.6H914.658V1763.7H897.408V1725.9L885.258 1734.9C880.458 1730.2 876.058 1724.9 872.058 1719C868.158 1713 864.708 1706.5 861.708 1699.5C858.908 1706.9 855.308 1713.85 850.908 1720.35C846.608 1726.85 841.308 1733.05 835.008 1738.95ZM1046.75 1628.1H1065.35V1767.15H1046.75V1628.1ZM949.998 1725.75C959.398 1721.25 967.448 1716.3 974.148 1710.9C980.948 1705.4 986.598 1699.65 991.098 1693.65C995.598 1687.55 999.048 1681.25 1001.45 1674.75C1003.95 1668.25 1005.6 1661.75 1006.4 1655.25C995.298 1655.55 984.198 1655.7 973.098 1655.7H957.198V1639.8H981.048C988.148 1639.8 995.348 1639.8 1002.65 1639.8C1010.05 1639.8 1018 1639.7 1026.5 1639.5C1025.8 1650.3 1024.15 1660.45 1021.55 1669.95C1018.95 1679.45 1015.1 1688.35 1010 1696.65C1004.9 1704.85 998.448 1712.45 990.648 1719.45C982.848 1726.45 973.448 1732.9 962.448 1738.8L949.998 1725.75ZM1230.68 1747.65H1101.98V1732.2H1156.73V1703.85H1175.78V1732.2H1230.68V1747.65ZM1174.43 1655.25C1180.33 1665.45 1187.33 1673.95 1195.43 1680.75C1203.53 1687.45 1213.38 1692.65 1224.98 1696.35L1214.63 1710.45C1204.73 1707.15 1195.78 1702.25 1187.78 1695.75C1179.78 1689.25 1172.93 1681.65 1167.23 1672.95C1162.13 1681.65 1155.43 1689.15 1147.13 1695.45C1138.83 1701.65 1129.78 1706.5 1119.98 1710L1108.73 1696.2C1116.73 1693.4 1123.83 1690.2 1130.03 1686.6C1136.23 1682.9 1141.38 1678.6 1145.48 1673.7C1149.68 1668.8 1152.83 1663.15 1154.93 1656.75C1157.03 1650.35 1157.98 1642.95 1157.78 1634.55H1176.38C1176.58 1638.25 1176.48 1641.85 1176.08 1645.35C1175.78 1648.75 1175.23 1652.05 1174.43 1655.25ZM1289.87 1658.4V1644H1325.27V1628.1H1343.87V1730.1H1325.27V1683H1289.87V1668.45H1325.42V1658.4H1289.87ZM1346.57 1764.45H1255.67V1722H1274.12V1748.7H1346.57V1764.45ZM1264.67 1710H1237.22V1633.2H1256.27V1694.7H1268.42C1286.12 1694.7 1302.57 1692.75 1317.77 1688.85V1703.85C1309.77 1706.15 1301.22 1707.75 1292.12 1708.65C1283.02 1709.55 1273.87 1710 1264.67 1710ZM1373.21 1690.95C1373.21 1687.55 1374.31 1684.75 1376.51 1682.55C1378.81 1680.25 1381.76 1679.1 1385.36 1679.1C1388.96 1679.1 1391.86 1680.25 1394.06 1682.55C1396.36 1684.75 1397.51 1687.55 1397.51 1690.95C1397.51 1694.35 1396.36 1697.2 1394.06 1699.5C1391.86 1701.7 1388.96 1702.8 1385.36 1702.8C1381.76 1702.8 1378.81 1701.7 1376.51 1699.5C1374.31 1697.2 1373.21 1694.35 1373.21 1690.95ZM1432.66 1690.95C1432.66 1687.55 1433.76 1684.75 1435.96 1682.55C1438.26 1680.25 1441.21 1679.1 1444.81 1679.1C1448.41 1679.1 1451.31 1680.25 1453.51 1682.55C1455.81 1684.75 1456.96 1687.55 1456.96 1690.95C1456.96 1694.35 1455.81 1697.2 1453.51 1699.5C1451.31 1701.7 1448.41 1702.8 1444.81 1702.8C1441.21 1702.8 1438.26 1701.7 1435.96 1699.5C1433.76 1697.2 1432.66 1694.35 1432.66 1690.95ZM1492.1 1690.95C1492.1 1687.55 1493.2 1684.75 1495.4 1682.55C1497.7 1680.25 1500.65 1679.1 1504.25 1679.1C1507.85 1679.1 1510.75 1680.25 1512.95 1682.55C1515.25 1684.75 1516.4 1687.55 1516.4 1690.95C1516.4 1694.35 1515.25 1697.2 1512.95 1699.5C1510.75 1701.7 1507.85 1702.8 1504.25 1702.8C1500.65 1702.8 1497.7 1701.7 1495.4 1699.5C1493.2 1697.2 1492.1 1694.35 1492.1 1690.95ZM1609.44 1630.5C1609.64 1634 1609.44 1637.4 1608.84 1640.7C1608.24 1644 1607.24 1647.25 1605.84 1650.45C1608.34 1653.95 1611.39 1657.1 1614.99 1659.9C1618.69 1662.7 1622.69 1665.2 1626.99 1667.4C1631.29 1669.6 1635.84 1671.55 1640.64 1673.25C1645.54 1674.85 1650.54 1676.15 1655.64 1677.15L1646.19 1691.85C1635.99 1689.55 1626.64 1686.15 1618.14 1681.65C1609.74 1677.15 1602.39 1671.75 1596.09 1665.45C1590.39 1671.75 1583.44 1677.25 1575.24 1681.95C1567.04 1686.65 1558.24 1690.3 1548.84 1692.9L1539.09 1678.5C1547.19 1676.4 1554.39 1673.75 1560.69 1670.55C1567.09 1667.35 1572.44 1663.75 1576.74 1659.75C1581.14 1655.65 1584.49 1651.15 1586.79 1646.25C1589.09 1641.35 1590.19 1636.1 1590.09 1630.5H1609.44ZM1532.64 1717.65V1702.2H1661.34V1717.65H1607.79V1766.4H1588.89V1717.65H1532.64ZM1759.53 1737.9V1725.45H1731.48V1711.35H1759.53V1628.1H1777.98V1737.9H1759.53ZM1662.03 1691.25H1683.63C1688.83 1691.25 1694.38 1691.2 1700.28 1691.1C1706.18 1690.9 1712.18 1690.65 1718.28 1690.35C1724.48 1689.95 1730.63 1689.5 1736.73 1689C1742.83 1688.5 1748.63 1687.9 1754.13 1687.2V1701.75C1748.73 1702.55 1742.98 1703.25 1736.88 1703.85C1730.88 1704.35 1724.73 1704.8 1718.43 1705.2V1728.15H1700.43V1705.95C1697.53 1706.05 1694.68 1706.15 1691.88 1706.25C1689.18 1706.25 1686.53 1706.25 1683.93 1706.25H1662.03V1691.25ZM1780.23 1764.45H1683.48V1731.15H1701.48V1748.85H1780.23V1764.45ZM1745.28 1657.65C1745.28 1661.75 1744.43 1665.5 1742.73 1668.9C1741.03 1672.3 1738.63 1675.25 1735.53 1677.75C1732.43 1680.25 1728.68 1682.2 1724.28 1683.6C1719.98 1684.9 1715.13 1685.55 1709.73 1685.55C1704.33 1685.55 1699.43 1684.9 1695.03 1683.6C1690.63 1682.2 1686.88 1680.25 1683.78 1677.75C1680.78 1675.25 1678.43 1672.3 1676.73 1668.9C1675.13 1665.5 1674.33 1661.75 1674.33 1657.65C1674.33 1653.55 1675.13 1649.8 1676.73 1646.4C1678.43 1643 1680.78 1640.05 1683.78 1637.55C1686.88 1635.05 1690.63 1633.15 1695.03 1631.85C1699.43 1630.45 1704.33 1629.75 1709.73 1629.75C1715.13 1629.75 1719.98 1630.45 1724.28 1631.85C1728.68 1633.15 1732.43 1635.05 1735.53 1637.55C1738.63 1640.05 1741.03 1643 1742.73 1646.4C1744.43 1649.8 1745.28 1653.55 1745.28 1657.65ZM1726.68 1657.65C1726.68 1656.05 1726.38 1654.45 1725.78 1652.85C1725.28 1651.15 1724.38 1649.65 1723.08 1648.35C1721.88 1647.05 1720.18 1646 1717.98 1645.2C1715.78 1644.4 1713.03 1644 1709.73 1644C1706.43 1644 1703.68 1644.4 1701.48 1645.2C1699.38 1646 1697.68 1647.05 1696.38 1648.35C1695.18 1649.65 1694.33 1651.15 1693.83 1652.85C1693.33 1654.45 1693.08 1656.05 1693.08 1657.65C1693.08 1659.25 1693.33 1660.9 1693.83 1662.6C1694.33 1664.2 1695.18 1665.65 1696.38 1666.95C1697.68 1668.25 1699.38 1669.3 1701.48 1670.1C1703.68 1670.9 1706.43 1671.3 1709.73 1671.3C1713.03 1671.3 1715.78 1670.9 1717.98 1670.1C1720.18 1669.3 1721.88 1668.25 1723.08 1666.95C1724.38 1665.65 1725.28 1664.2 1725.78 1662.6C1726.38 1660.9 1726.68 1659.25 1726.68 1657.65ZM1905.27 1767.15H1887.72V1628.1H1905.27V1767.15ZM1861.17 1629.6H1878.27V1763.7H1861.17V1691.4H1850.82C1850.32 1706.3 1847.57 1717.5 1842.57 1725C1837.67 1732.5 1830.37 1736.25 1820.67 1736.25C1810.47 1736.25 1802.92 1732 1798.02 1723.5C1793.12 1714.9 1790.67 1702.5 1790.67 1686.3C1790.67 1669.8 1793.07 1657.4 1797.87 1649.1C1802.77 1640.7 1810.37 1636.5 1820.67 1636.5C1829.97 1636.5 1837.02 1639.75 1841.82 1646.25C1846.62 1652.75 1849.52 1662.35 1850.52 1675.05H1861.17V1629.6ZM1833.12 1686.3C1833.12 1675.6 1832.17 1667.35 1830.27 1661.55C1828.47 1655.65 1825.27 1652.7 1820.67 1652.7C1816.17 1652.7 1813.12 1655.65 1811.52 1661.55C1809.92 1667.35 1809.12 1675.6 1809.12 1686.3C1809.12 1697.1 1809.92 1705.45 1811.52 1711.35C1813.12 1717.15 1816.17 1720.05 1820.67 1720.05C1825.27 1720.05 1828.47 1717.15 1830.27 1711.35C1832.17 1705.45 1833.12 1697.1 1833.12 1686.3ZM1983.21 1687.8V1671.75H2008.56V1628.1H2027.16V1767.15H2008.56V1687.8H1983.21ZM1919.76 1738.35L1907.16 1727.1C1913.46 1722.4 1919.16 1717.2 1924.26 1711.5C1929.36 1705.8 1933.61 1699.3 1937.01 1692C1940.51 1684.7 1943.06 1676.5 1944.66 1667.4C1946.26 1658.3 1946.71 1647.95 1946.01 1636.35H1965.21C1965.51 1649.85 1964.46 1662.2 1962.06 1673.4C1965.96 1684 1971.01 1693.35 1977.21 1701.45C1983.51 1709.55 1991.36 1716.8 2000.76 1723.2L1989.06 1736.25C1974.26 1725.85 1962.71 1712.65 1954.41 1696.65C1950.41 1705.25 1945.51 1713 1939.71 1719.9C1933.91 1726.7 1927.26 1732.85 1919.76 1738.35ZM2139.4 1677.6V1662.3H2160.85V1628.1H2179.45V1711.65H2160.85V1677.6H2139.4ZM2160.85 1767.45V1732.65H2088.25V1717.5H2179.45V1767.45H2160.85ZM2073.25 1634.25H2095.45C2102.15 1634.25 2108.85 1634.25 2115.55 1634.25C2122.25 1634.25 2129 1634.15 2135.8 1633.95C2135 1641.85 2133.4 1649.1 2131 1655.7C2128.7 1662.3 2125.7 1668.4 2122 1674C2126.3 1678.8 2131.1 1683.2 2136.4 1687.2C2141.7 1691.1 2146.95 1694.3 2152.15 1696.8L2141.05 1709.85C2130.55 1704.45 2120.9 1696.6 2112.1 1686.3C2107.2 1691.5 2101.7 1696.2 2095.6 1700.4C2089.5 1704.6 2082.85 1708.5 2075.65 1712.1L2063.8 1698.9C2071.5 1695.4 2078.3 1691.6 2084.2 1687.5C2090.2 1683.3 2095.3 1679.05 2099.5 1674.75C2103.7 1670.35 2107 1666 2109.4 1661.7C2111.8 1657.4 2113.3 1653.35 2113.9 1649.55C2109.7 1649.75 2105.55 1649.85 2101.45 1649.85C2097.45 1649.85 2093.35 1649.85 2089.15 1649.85H2073.25V1634.25ZM2195.59 1693.05V1632.15H2213.89V1650.15H2242.54V1632.15H2260.54V1693.05H2195.59ZM2242.69 1664.25H2213.74V1678.65H2242.69V1664.25ZM2320.24 1670.1H2299.39V1697.1H2280.94V1628.1H2299.39V1654.65H2320.24V1670.1ZM2302.24 1765.65H2211.49V1726.2H2281.09V1718.1H2211.49V1702.95H2299.39V1741.05H2229.94V1750.5H2302.24V1765.65ZM2342.18 1734.6V1719.45H2470.88V1734.6H2417.18V1766.4H2398.58V1734.6H2342.18ZM2435.03 1629V1644.15H2378.03V1629H2435.03ZM2458.58 1650V1664.7H2354.63V1650H2458.58ZM2447.78 1690.95C2447.78 1693.95 2446.88 1696.8 2445.08 1699.5C2443.38 1702.1 2440.78 1704.4 2437.28 1706.4C2433.88 1708.4 2429.58 1710 2424.38 1711.2C2419.28 1712.3 2413.38 1712.85 2406.68 1712.85C2399.78 1712.85 2393.73 1712.3 2388.53 1711.2C2383.43 1710 2379.13 1708.4 2375.63 1706.4C2372.23 1704.4 2369.68 1702.1 2367.98 1699.5C2366.28 1696.8 2365.43 1693.95 2365.43 1690.95C2365.43 1687.95 2366.28 1685.15 2367.98 1682.55C2369.68 1679.85 2372.23 1677.5 2375.63 1675.5C2379.03 1673.5 2383.33 1671.95 2388.53 1670.85C2393.73 1669.65 2399.78 1669.05 2406.68 1669.05C2413.38 1669.05 2419.28 1669.65 2424.38 1670.85C2429.58 1671.95 2433.88 1673.5 2437.28 1675.5C2440.78 1677.4 2443.38 1679.7 2445.08 1682.4C2446.88 1685.1 2447.78 1687.95 2447.78 1690.95ZM2428.73 1691.25C2428.73 1690.35 2428.38 1689.4 2427.68 1688.4C2426.98 1687.4 2425.78 1686.5 2424.08 1685.7C2422.38 1684.9 2420.08 1684.25 2417.18 1683.75C2414.38 1683.15 2410.83 1682.85 2406.53 1682.85C2402.23 1682.85 2398.63 1683.15 2395.73 1683.75C2392.93 1684.25 2390.68 1684.9 2388.98 1685.7C2387.38 1686.5 2386.23 1687.4 2385.53 1688.4C2384.83 1689.4 2384.48 1690.35 2384.48 1691.25C2384.48 1692.05 2384.83 1692.9 2385.53 1693.8C2386.23 1694.7 2387.38 1695.55 2388.98 1696.35C2390.68 1697.05 2392.93 1697.7 2395.73 1698.3C2398.63 1698.8 2402.23 1699.05 2406.53 1699.05C2410.83 1699.05 2414.38 1698.8 2417.18 1698.3C2420.08 1697.7 2422.38 1697.05 2424.08 1696.35C2425.78 1695.55 2426.98 1694.7 2427.68 1693.8C2428.38 1692.9 2428.73 1692.05 2428.73 1691.25ZM2513.96 1707V1639.35H2603.81V1655.25H2532.71V1691.25H2605.01V1707H2569.16V1732.2H2623.91V1747.65H2493.71V1732.2H2550.26V1707H2513.96ZM2620.7 1703.4H2749.4V1719.15H2695.4V1766.4H2676.5V1719.15H2620.7V1703.4ZM2699 1648.5C2693.3 1648.8 2687.9 1649 2682.8 1649.1C2677.8 1649.1 2672.5 1649.1 2666.9 1649.1H2641.25V1633.5H2685.35C2691.35 1633.5 2697.25 1633.5 2703.05 1633.5C2708.95 1633.5 2715.2 1633.4 2721.8 1633.2C2725.2 1633.2 2726.3 1635.05 2725.1 1638.75C2720.5 1649.65 2713 1659.1 2702.6 1667.1C2708.6 1669.8 2714.95 1672.25 2721.65 1674.45C2728.35 1676.65 2735.75 1678.6 2743.85 1680.3L2734.7 1695.45C2725.6 1693.25 2717.15 1690.7 2709.35 1687.8C2701.65 1684.8 2694.15 1681.2 2686.85 1677C2679.95 1680.8 2672.25 1684.25 2663.75 1687.35C2655.35 1690.35 2646.15 1693.25 2636.15 1696.05L2627 1681.65C2636.9 1679.55 2645.9 1677.1 2654 1674.3C2662.1 1671.4 2669.2 1668.45 2675.3 1665.45C2681.4 1662.45 2686.45 1659.5 2690.45 1656.6C2694.45 1653.6 2697.3 1650.9 2699 1648.5ZM2846.49 1715.55C2859.19 1716.45 2868.79 1719.2 2875.29 1723.8C2881.89 1728.4 2885.19 1734.3 2885.19 1741.5C2885.19 1749.5 2881.09 1755.95 2872.89 1760.85C2864.79 1765.75 2852.99 1768.2 2837.49 1768.2C2821.79 1768.2 2809.89 1765.75 2801.79 1760.85C2793.79 1755.95 2789.79 1749.5 2789.79 1741.5C2789.79 1734.4 2792.99 1728.6 2799.39 1724.1C2805.89 1719.5 2815.29 1716.7 2827.59 1715.7V1703.55H2771.79V1688.4H2903.19V1703.55H2846.49V1715.55ZM2837.49 1729.5C2832.19 1729.5 2827.74 1729.85 2824.14 1730.55C2820.54 1731.15 2817.64 1732.05 2815.44 1733.25C2813.24 1734.35 2811.64 1735.65 2810.64 1737.15C2809.74 1738.55 2809.29 1740 2809.29 1741.5C2809.29 1743.1 2809.74 1744.6 2810.64 1746C2811.64 1747.5 2813.24 1748.8 2815.44 1749.9C2817.64 1751.1 2820.54 1752.05 2824.14 1752.75C2827.74 1753.45 2832.19 1753.8 2837.49 1753.8C2842.79 1753.8 2847.24 1753.45 2850.84 1752.75C2854.44 1752.05 2857.34 1751.1 2859.54 1749.9C2861.74 1748.8 2863.29 1747.5 2864.19 1746C2865.19 1744.6 2865.69 1743.1 2865.69 1741.5C2865.69 1740 2865.19 1738.55 2864.19 1737.15C2863.29 1735.65 2861.74 1734.35 2859.54 1733.25C2857.34 1732.05 2854.44 1731.15 2850.84 1730.55C2847.24 1729.85 2842.79 1729.5 2837.49 1729.5ZM2792.94 1632H2838.84C2844.84 1632 2850.69 1632 2856.39 1632C2862.09 1632 2868.19 1631.9 2874.69 1631.7C2877.99 1631.7 2879.04 1633.55 2877.84 1637.25C2876.44 1641.45 2873.94 1645.5 2870.34 1649.4C2866.74 1653.2 2862.24 1656.85 2856.84 1660.35C2862.74 1662.45 2868.94 1664.25 2875.44 1665.75C2881.94 1667.25 2888.64 1668.5 2895.54 1669.5L2889.09 1682.85C2880.49 1681.25 2872.24 1679.35 2864.34 1677.15C2856.44 1674.85 2848.79 1672 2841.39 1668.6C2833.89 1671.9 2825.69 1674.8 2816.79 1677.3C2807.89 1679.8 2798.49 1681.75 2788.59 1683.15L2781.69 1669.5C2791.59 1668.2 2800.39 1666.6 2808.09 1664.7C2815.89 1662.8 2822.64 1660.8 2828.34 1658.7C2834.14 1656.6 2838.89 1654.5 2842.59 1652.4C2846.39 1650.2 2849.24 1648.15 2851.14 1646.25V1646.1C2845.74 1646.3 2840.39 1646.5 2835.09 1646.7C2829.89 1646.8 2824.59 1646.85 2819.19 1646.85H2792.94V1632Z" fill="white"/>
</svg>
