<svg width="132" height="59" viewBox="0 0 132 59" fill="none" xmlns="http://www.w3.org/2000/svg">
<path d="M29.74 52.24L29.32 45.1C29.04 39.36 26.45 37.05 20.29 37.05H10.77V57.14H0.48V1.77H22.67C34.29 1.77 40.45 8 40.45 18.71C40.45 25.99 37.23 30.75 30.79 32.64C36.6 33.55 39.05 37.12 39.47 44.4L39.96 52.1C40.1 54.2 40.45 55.88 40.94 57.14H30.58C30.09 55.95 29.81 54.2 29.74 52.24ZM10.77 28.3H20.99C26.66 28.3 30.16 25.92 30.16 19.41C30.16 12.9 26.66 10.52 20.99 10.52H10.77V28.3ZM48.2632 57.14V1.77H82.0032V10.52H58.5532V24.45H79.1332V33.13H58.5532V48.39H82.3532V57.14H48.2632ZM88.429 29.42C88.429 21.72 89.339 14.23 93.399 8.56C96.899 3.73 102.289 0.789998 110.409 0.789998C123.429 0.789998 131.199 8.77 131.759 20.46H121.539C121.189 13.74 117.269 9.61 110.409 9.61C106.349 9.61 103.479 11.15 101.659 13.81C99.629 16.82 98.649 21.09 98.649 29.42C98.649 37.89 99.629 42.09 101.659 45.17C103.479 47.83 106.349 49.37 110.409 49.37C117.269 49.37 121.189 45.24 121.539 38.52H131.759C131.199 50.21 123.429 58.12 110.409 58.12C102.289 58.12 96.899 55.25 93.399 50.42C89.339 44.75 88.429 37.19 88.429 29.42Z" fill="#FF0000"/>
</svg>
