<svg width="3000" height="1924" viewBox="0 0 3000 1924" fill="none" xmlns="http://www.w3.org/2000/svg">
<mask id="path-1-inside-1_58_13" fill="white">
<path d="M132 108H382V358H132V108Z"/>
</mask>
<path d="M132 108V98H122V108H132ZM132 118H382V98H132V118ZM142 358V108H122V358H142Z" fill="white" mask="url(#path-1-inside-1_58_13)"/>
<mask id="path-3-inside-2_58_13" fill="white">
<path d="M132 1815H382V1565H132V1815Z"/>
</mask>
<path d="M132 1815V1825H122V1815H132ZM132 1805H382V1825H132V1805ZM142 1565V1815H122V1565H142Z" fill="white" mask="url(#path-3-inside-2_58_13)"/>
<mask id="path-5-inside-3_58_13" fill="white">
<path d="M2868 108H2618V358H2868V108Z"/>
</mask>
<path d="M2868 108V98H2878V108H2868ZM2868 118H2618V98H2868V118ZM2858 358V108H2878V358H2858Z" fill="white" mask="url(#path-5-inside-3_58_13)"/>
<mask id="path-7-inside-4_58_13" fill="white">
<path d="M2868 1815H2618V1565H2868V1815Z"/>
</mask>
<path d="M2868 1815V1825H2878V1815H2868ZM2868 1805H2618V1825H2868V1805ZM2858 1565V1815H2878V1565H2858Z" fill="white" mask="url(#path-7-inside-4_58_13)"/>
<g opacity="0.8">
<mask id="path-9-inside-5_58_13" fill="white">
<path d="M1121 695H1200.61V773.458H1121V695Z"/>
</mask>
<path d="M1121 695V692H1118V695H1121ZM1121 698H1200.61V692H1121V698ZM1124 773.458V695H1118V773.458H1124Z" fill="#FF0000" mask="url(#path-9-inside-5_58_13)"/>
<mask id="path-11-inside-6_58_13" fill="white">
<path d="M1121 1228H1200.61V1149.54H1121V1228Z"/>
</mask>
<path d="M1121 1228V1231H1118V1228H1121ZM1121 1225H1200.61V1231H1121V1225ZM1124 1149.54V1228H1118V1149.54H1124Z" fill="#FF0000" mask="url(#path-11-inside-6_58_13)"/>
<mask id="path-13-inside-7_58_13" fill="white">
<path d="M1879 695H1799.39V773.458H1879V695Z"/>
</mask>
<path d="M1879 695V692H1882V695H1879ZM1879 698H1799.39V692H1879V698ZM1876 773.458V695H1882V773.458H1876Z" fill="#FF0000" mask="url(#path-13-inside-7_58_13)"/>
<mask id="path-15-inside-8_58_13" fill="white">
<path d="M1879 1228H1799.39V1149.54H1879V1228Z"/>
</mask>
<path d="M1879 1228V1231H1882V1228H1879ZM1879 1225H1799.39V1231H1879V1225ZM1876 1149.54V1228H1882V1149.54H1876Z" fill="#FF0000" mask="url(#path-15-inside-8_58_13)"/>
</g>
<path d="M370.74 264.24L370.32 257.1C370.04 251.36 367.45 249.05 361.29 249.05H351.77V269.14H341.48V213.77H363.67C375.29 213.77 381.45 220 381.45 230.71C381.45 237.99 378.23 242.75 371.79 244.64C377.6 245.55 380.05 249.12 380.47 256.4L380.96 264.1C381.1 266.2 381.45 267.88 381.94 269.14H371.58C371.09 267.95 370.81 266.2 370.74 264.24ZM351.77 240.3H361.99C367.66 240.3 371.16 237.92 371.16 231.41C371.16 224.9 367.66 222.52 361.99 222.52H351.77V240.3ZM389.263 269.14V213.77H423.003V222.52H399.553V236.45H420.133V245.13H399.553V260.39H423.353V269.14H389.263ZM429.429 241.42C429.429 233.72 430.339 226.23 434.399 220.56C437.899 215.73 443.289 212.79 451.409 212.79C464.429 212.79 472.199 220.77 472.759 232.46H462.539C462.189 225.74 458.269 221.61 451.409 221.61C447.349 221.61 444.479 223.15 442.659 225.81C440.629 228.82 439.649 233.09 439.649 241.42C439.649 249.89 440.629 254.09 442.659 257.17C444.479 259.83 447.349 261.37 451.409 261.37C458.269 261.37 462.189 257.24 462.539 250.52H472.759C472.199 262.21 464.429 270.12 451.409 270.12C443.289 270.12 437.899 267.25 434.399 262.42C430.339 256.75 429.429 249.19 429.429 241.42Z" fill="#FF0000"/>
<path d="M268.64 1709.12H260.12V1670.24L249.5 1674.98V1667.06L261.38 1661.66H268.64V1709.12ZM314.241 1685.36C314.241 1695.98 312.561 1701.86 309.141 1705.64C306.561 1708.52 302.841 1709.96 298.161 1709.96C293.421 1709.96 289.701 1708.52 287.121 1705.64C283.701 1701.86 282.021 1695.98 282.021 1685.36C282.021 1674.86 283.701 1668.98 287.121 1665.14C289.701 1662.32 293.421 1660.82 298.161 1660.82C302.841 1660.82 306.561 1662.32 309.141 1665.14C312.561 1668.98 314.241 1674.86 314.241 1685.36ZM305.721 1685.36C305.721 1676.96 305.121 1672.82 303.381 1670.42C302.061 1668.8 300.381 1668.02 298.161 1668.02C295.881 1668.02 294.201 1668.8 292.941 1670.42C291.141 1672.82 290.541 1676.96 290.541 1685.36C290.541 1693.88 291.141 1698.02 292.941 1700.36C294.201 1702.04 295.881 1702.82 298.161 1702.82C300.381 1702.82 302.061 1702.04 303.381 1700.36C305.121 1698.02 305.721 1693.88 305.721 1685.36ZM335.603 1709.96C325.883 1709.96 319.223 1704.44 319.223 1695.68C319.223 1689.74 322.403 1685.78 327.563 1683.92C323.423 1682.36 320.603 1678.22 320.603 1673.54C320.603 1666.34 326.183 1660.82 335.603 1660.82C345.023 1660.82 350.543 1666.34 350.543 1673.54C350.543 1678.22 347.783 1682.36 343.643 1683.92C348.803 1685.78 351.983 1689.74 351.983 1695.68C351.983 1704.44 345.263 1709.96 335.603 1709.96ZM335.603 1668.02C331.643 1668.02 329.063 1670.54 329.063 1674.26C329.063 1677.98 331.643 1680.5 335.603 1680.5C339.563 1680.5 342.083 1677.98 342.083 1674.26C342.083 1670.54 339.563 1668.02 335.603 1668.02ZM335.603 1687.4C330.923 1687.4 327.743 1690.34 327.743 1695.14C327.743 1699.88 330.923 1702.82 335.603 1702.82C340.223 1702.82 343.403 1699.88 343.403 1695.14C343.403 1690.34 340.223 1687.4 335.603 1687.4ZM389.124 1685.36C389.124 1695.98 387.444 1701.86 384.024 1705.64C381.444 1708.52 377.724 1709.96 373.044 1709.96C368.304 1709.96 364.584 1708.52 362.004 1705.64C358.584 1701.86 356.904 1695.98 356.904 1685.36C356.904 1674.86 358.584 1668.98 362.004 1665.14C364.584 1662.32 368.304 1660.82 373.044 1660.82C377.724 1660.82 381.444 1662.32 384.024 1665.14C387.444 1668.98 389.124 1674.86 389.124 1685.36ZM380.604 1685.36C380.604 1676.96 380.004 1672.82 378.264 1670.42C376.944 1668.8 375.264 1668.02 373.044 1668.02C370.764 1668.02 369.084 1668.8 367.824 1670.42C366.024 1672.82 365.424 1676.96 365.424 1685.36C365.424 1693.88 366.024 1698.02 367.824 1700.36C369.084 1702.04 370.764 1702.82 373.044 1702.82C375.264 1702.82 376.944 1702.04 378.264 1700.36C380.004 1698.02 380.604 1693.88 380.604 1685.36ZM414.566 1691.9H404.426V1709.12H395.606V1661.66H414.566C424.106 1661.66 429.806 1667.18 429.806 1676.78C429.806 1686.44 424.106 1691.9 414.566 1691.9ZM404.426 1684.4H413.366C418.466 1684.4 421.046 1681.7 421.046 1676.78C421.046 1671.86 418.466 1669.16 413.366 1669.16H404.426V1684.4Z" fill="white"/>
<path opacity="0.7" fill-rule="evenodd" clip-rule="evenodd" d="M1500 962L1500 1042H1502.37L1502.37 962H1580V959.635H1502.37V882H1500V959.635H1420V962H1500Z" fill="white"/>
<path fill-rule="evenodd" clip-rule="evenodd" d="M2735 222H2618V266H2735V222ZM2618 219H2615V222V266V269H2618H2735H2738V266V254H2743V234H2738V222V219H2735H2618ZM2638 223H2619V265H2638V223ZM2639 223H2658V265H2639V223ZM2678 223H2659V265H2678V223Z" fill="white"/>
<path fill-rule="evenodd" clip-rule="evenodd" d="M1499.22 1838.51L1490.78 1821.81H1507.66L1499.22 1838.51ZM1507.58 1821.81H1490.87L1490.87 1787H1507.58V1821.81ZM1262.58 1832.95H1265.39V1830.16H1262.58V1832.95ZM1279.43 1832.95H1282.23V1830.16H1279.43V1832.95ZM1296.27 1832.95H1299.08V1830.16H1296.27V1832.95ZM1313.12 1832.95H1315.93V1830.16H1313.12V1832.95ZM1329.97 1832.95H1332.77V1832.89H1338.92V1829.51H1327.4L1335.93 1819.8C1337.95 1817.5 1338.5 1815.97 1338.54 1813.33C1338.54 1808.8 1335.55 1805.15 1330.19 1805.15C1324.83 1805.15 1321.8 1808.8 1321.8 1813.33V1814.09H1325.73V1813.36C1325.73 1810.47 1327.4 1808.56 1330.19 1808.56C1332.8 1808.56 1334.64 1810.54 1334.64 1813.36C1334.64 1814.96 1334.12 1816.22 1332.76 1817.75L1322.18 1829.82V1832.89H1329.97V1832.95ZM1346.81 1832.95H1349.62V1830.16H1346.81V1832.95ZM1363.66 1832.95H1366.47V1830.16H1363.66V1832.95ZM1380.51 1832.95H1383.31V1830.16H1380.51V1832.95ZM1397.35 1832.95H1400.16V1830.16H1397.35V1832.95ZM1414.2 1832.95H1417.01V1832.89H1417.9V1805.6H1414.56L1407.56 1808.77V1812.6L1413.97 1809.74V1832.89H1414.2V1832.95ZM1431.04 1832.95H1433.85V1830.16H1431.04V1832.95ZM1447.89 1832.95H1450.7V1830.16H1447.89V1832.95ZM1464.74 1832.95H1467.54V1830.16H1464.74V1832.95ZM1481.58 1832.95H1484.39V1830.16H1481.58V1832.95ZM1515.28 1832.95H1518.08V1830.16H1515.28V1832.95ZM1532.12 1832.95H1534.93V1830.16H1532.12V1832.95ZM1548.97 1832.95H1551.78V1830.16H1548.97V1832.95ZM1565.81 1832.95H1568.62V1830.16H1565.81V1832.95ZM1582.66 1832.95H1585.47V1832.89H1586.36V1805.6H1583.02L1576.02 1808.77V1812.6L1582.43 1809.74V1832.89H1582.66V1832.95ZM1599.51 1832.95H1602.32V1830.16H1599.51V1832.95ZM1616.35 1832.95H1619.16V1830.16H1616.35V1832.95ZM1633.2 1832.95H1636.01V1830.16H1633.2V1832.95ZM1650.05 1832.95H1652.85V1830.16H1650.05V1832.95ZM1666.89 1832.95H1669.7V1832.89H1677.24V1829.51H1665.72L1674.25 1819.8C1676.27 1817.5 1676.82 1815.97 1676.86 1813.33C1676.86 1808.8 1673.86 1805.15 1668.5 1805.15C1663.14 1805.15 1660.12 1808.8 1660.12 1813.33V1814.09H1664.05V1813.36C1664.05 1810.47 1665.72 1808.56 1668.5 1808.56C1671.11 1808.56 1672.96 1810.54 1672.96 1813.36C1672.96 1814.96 1672.44 1816.22 1671.08 1817.75L1660.5 1829.82V1832.89H1666.89V1832.95ZM1683.74 1832.95H1686.55V1830.16H1683.74V1832.95ZM1700.59 1832.95H1703.39V1830.16H1700.59V1832.95ZM1717.43 1832.95H1720.24V1830.16H1717.43V1832.95ZM1734.28 1832.95H1737.09V1830.16H1734.28V1832.95ZM1756.88 1825.02C1756.88 1821.92 1754.9 1820.08 1752.11 1820.08H1749.29V1816.74H1752.11C1754.55 1816.74 1756.11 1815.07 1756.11 1812.67C1756.11 1810.16 1754.41 1808.56 1752.04 1808.56C1749.57 1808.56 1747.97 1810.16 1747.97 1812.67V1812.94H1744.04V1812.35C1744.04 1808.24 1746.99 1805.15 1752.04 1805.15C1757.09 1805.15 1760.01 1808.24 1760.01 1812.35C1760.01 1815.17 1758.41 1817.57 1755.87 1818.37C1758.86 1819.24 1760.81 1821.61 1760.81 1825.27C1760.81 1830.21 1757.16 1833.34 1752.04 1833.34C1746.92 1833.34 1743.2 1830.21 1743.2 1825.16V1824.74H1747.17V1824.95C1747.17 1828.15 1749.22 1829.93 1752.04 1829.93C1754.79 1829.93 1756.88 1828.19 1756.88 1825.02ZM1246.72 1820.08C1249.5 1820.08 1251.49 1821.92 1251.49 1825.02C1251.49 1828.19 1249.4 1829.93 1246.65 1829.93C1243.83 1829.93 1241.78 1828.15 1241.78 1824.95V1824.74H1237.81V1825.16C1237.81 1830.21 1241.53 1833.34 1246.65 1833.34C1251.77 1833.34 1255.42 1830.21 1255.42 1825.27C1255.42 1821.61 1253.47 1819.24 1250.48 1818.37C1253.02 1817.57 1254.62 1815.17 1254.62 1812.35C1254.62 1808.24 1251.7 1805.15 1246.65 1805.15C1241.6 1805.15 1238.64 1808.24 1238.64 1812.35V1812.94H1242.58V1812.67C1242.58 1810.16 1244.18 1808.56 1246.65 1808.56C1249.02 1808.56 1250.72 1810.16 1250.72 1812.67C1250.72 1815.07 1249.16 1816.74 1246.72 1816.74H1243.9V1820.08H1246.72Z" fill="white"/>
</svg>
