<svg width="1566" height="1509" viewBox="0 0 1566 1509" fill="none" xmlns="http://www.w3.org/2000/svg">
<path d="M730.461 1281.42C689.837 1317.53 606.03 1227.13 579.776 1204.94C344.12 1005.8 67.7133 751.421 50.486 421.231C40.1973 224.03 194.355 30.2017 408.646 69.8854C628.583 110.614 715.697 422.845 771.35 603.719C772.679 608.037 930.792 366.48 947.023 342.481C982.531 289.98 1217.06 -79.7237 1290.8 97.9022C1411.15 387.837 1458.64 739.361 1313.51 1028.51C1205.42 1243.87 986.523 1348.68 784.98 1458.61" stroke="#E894AD" stroke-opacity="0.78" stroke-width="100" stroke-linecap="round"/>
<path d="M703.201 736.233C666.526 630.285 610.739 468.131 512.384 409.118C434.44 362.352 311.063 258.227 218.586 340.969C119.799 429.358 150.877 582.03 218.586 681.714C341.46 862.612 499.865 984.99 675.941 1107.27C727.327 1142.95 785.423 1175.62 840.256 1206.46C941.038 1263.15 975.259 1196.86 1071.2 1145.13C1193.43 1079.22 1303.16 951.346 1362.73 825.584C1396.73 753.805 1393.2 660.156 1408.92 583.276C1429.11 484.589 1404.64 284.892 1313.51 218.301C1159.28 105.59 1013.73 333.564 934.907 439.406C865.434 532.698 771.467 812.189 828.897 927.05C871.815 1012.89 989.496 873.534 1021.99 847.543C1118.42 770.399 1136.72 694.973 1193.87 589.334C1218.32 544.137 1246.88 482.308 1246.88 430.32C1246.88 392.153 1134.52 546.694 1133.3 548.445C1028.15 698.647 894.662 796.518 717.588 838.456C627.876 859.704 502.588 906.499 444.235 804.382C413.939 751.365 364 700.761 348.826 640.067C334.638 583.314 328.621 521.592 310.966 466.666C296.838 422.712 274.368 332.386 297.336 286.45C341.449 198.225 382.087 202.649 457.865 242.532C505.418 267.56 563.586 317.389 580.533 368.229" stroke="#E28AA5" stroke-opacity="0.66" stroke-width="300" stroke-linecap="round"/>
</svg>
