<svg width="1869" height="1557" viewBox="0 0 1869 1557" fill="none" xmlns="http://www.w3.org/2000/svg">
<path d="M617.718 1112.57C533.87 1112.57 444.935 1029.5 385.478 982.614C272.184 893.268 151.165 789.55 85.0465 658.379C27.1067 543.434 50.3724 405.673 87.6198 287.825C133.388 143.017 230.31 74.5037 371.969 159.803C499.327 236.492 591.325 364.701 683.337 478.248C710.489 511.755 754.572 606.874 776.619 530.358C830.399 343.71 925.975 128.856 1129.8 69.0948C1407.5 -12.3246 1656.59 193.142 1748.04 442.866C1862.16 754.506 1712.06 991.33 1472.05 1188.48C1284.09 1342.87 1092.74 1474.53 849.315 1506.28" stroke="#E894AD" stroke-opacity="0.78" stroke-width="100" stroke-linecap="round"/>
<path d="M779.836 603.054C808.278 596.734 821.723 488.801 837.735 464.096C873.068 409.582 914.13 372.382 965.113 334.145C1045.57 273.805 1153.73 232.5 1254.61 232.5C1376.76 232.5 1583.69 308.034 1634.17 431.93C1657.14 488.319 1736.46 554.631 1715.23 623.641C1705 656.876 1701.13 697.362 1683.06 727.859C1662.69 762.229 1642.7 765.378 1616.16 790.905C1591.02 815.072 1582.83 865.699 1555.68 880.97C1517.21 902.614 1490.49 937.294 1454.04 962.029C1378.15 1013.53 1297.54 1073.31 1231.45 1135.73C1206.84 1158.97 1174.5 1170.78 1150.39 1193.62C1127.81 1215.02 1100.72 1249.45 1071.9 1260.53C1026.38 1278.04 978.973 1334.63 927.8 1332.58C888.95 1331.03 817.008 1263.75 782.409 1242.52C744.119 1219.02 707.347 1178.69 666.611 1161.46C561.398 1116.95 443.278 1005.49 362.962 927.289C298.013 864.049 251.721 775.245 209.851 695.693C182.487 643.701 138.637 563.719 157.099 501.409C185.057 407.048 228.714 262.453 357.172 301.979C501.929 346.52 605.518 525.984 680.764 644.227C722.379 709.622 725.721 779.986 709.713 852.02C695.944 913.982 433.091 635.522 404.135 593.404C384.125 564.299 365.677 535.82 346.236 505.269C330.76 480.951 350.465 504.707 360.389 511.059C408.997 542.168 456.105 559.799 496.13 603.698C594.927 712.056 694.008 818.302 797.205 921.499C840.866 965.16 889.187 1020.87 918.793 1072.68C936.328 1103.37 915.058 1036.06 913.003 1022.5C902.569 953.635 903.031 875.033 907.857 805.058C922.465 593.247 1182.27 437.594 1376.84 453.16C1467.9 460.445 1550.11 566.717 1543.46 656.45C1532.6 803.011 1464.01 878.01 1358.18 962.672C1337.18 979.473 1105.36 1114.71 1105.36 1029.58C1105.36 928.869 1191.33 793.707 1259.75 725.286C1294.86 690.185 1377.6 684.374 1369.76 754.878C1360.67 836.694 1331.28 861.066 1265.54 915.066C1236.31 939.082 1140.31 992.256 1127.23 1031.51" stroke="#E28AA5" stroke-opacity="0.66" stroke-width="300" stroke-linecap="round"/>
</svg>
