<svg width="1756" height="1584" viewBox="0 0 1756 1584" fill="none" xmlns="http://www.w3.org/2000/svg">
<path d="M1007.61 1382.57C968.423 1417.4 886.462 1363.31 853.216 1347.18C526.797 1188.82 113 923.457 54.8521 533.379C35.4406 403.16 75.279 4.48355 293.525 54.7463C568.138 117.991 730.391 409.794 969.014 538.525C993.952 551.979 993.347 546.512 1001.18 524.372C1031.23 439.463 1087.95 366.067 1149.15 301.139C1204.87 242.021 1290.88 149.496 1380.74 148.671C1477.19 147.787 1561.58 227.361 1590.46 314.006C1634.73 446.801 1605.94 603.736 1576.31 736.026C1535.68 917.451 1473.71 1105.67 1374.31 1264.19C1299.76 1383.09 1159.35 1445.25 1053.93 1533.1" stroke="#E894AD" stroke-opacity="0.78" stroke-width="100" stroke-linecap="round"/>
<path d="M1077.09 734.095C1058.67 568.274 1272.06 427.345 1384.6 336.521C1489.45 251.906 1567.37 399.098 1595.61 488.346C1642.51 636.529 1503.81 761.401 1436.07 873.053C1378.88 967.302 1325.25 1049.02 1256.58 1132.96C1228.87 1166.83 1206.41 1206.93 1175.52 1237.82C1158.26 1255.08 1151.49 1265.98 1129.85 1278.35C1113.52 1287.67 1047.75 1237.58 1023.06 1229.45C847.122 1171.55 637.285 1120.77 530.27 956.685C475.285 872.375 374.756 810.797 358.502 705.146C344.081 611.41 306.177 545.45 324.406 449.746C335.131 393.443 339.869 346.141 375.872 299.852C439.121 218.532 672.315 386.623 730.343 421.44C825.276 478.4 926.185 559.324 972.876 662.043C995.611 712.061 1077.09 780.378 1077.09 838.313C1077.09 854.889 1016.35 857.602 1005.04 858.9C877.783 873.503 740.95 770.824 645.424 700.642C579.354 652.1 530.305 588.775 493.6 515.365C490.437 509.039 463.365 457.466 482.02 457.466C564.385 457.466 671.107 577.15 714.903 635.023C786.921 730.19 859.69 842.873 914.977 948.965C956.318 1028.3 1025.72 1082.71 1109.26 1113.66C1136.78 1123.85 1150.64 1148.2 1169.73 1111.08C1200.02 1052.19 1206.53 991.668 1221.2 928.379C1250.41 802.291 1307.96 688.357 1378.17 580.984C1390.31 562.412 1442.77 523.222 1421.92 530.805C1356.13 554.726 1281.67 696.891 1237.93 748.248C1136.22 867.637 1040.5 1058.2 888.601 1120.09C858.652 1132.29 807.359 1151.89 775.376 1143.89C671.359 1117.89 528.186 1019.86 532.843 898.786C535.066 840.972 666.651 926.758 679.521 933.525C793.41 993.415 916.853 1020.61 1034.64 1069.91C1070.63 1084.98 909.759 1030.47 893.104 1022.3C806.115 979.641 723.267 931.005 634.488 891.709C589.195 871.662 539.596 853.504 505.18 816.44C480.74 790.12 550.736 833.641 557.289 835.74C641.912 862.846 732.097 870.202 820.408 872.41C878.127 873.853 982.464 897.47 1019.84 837.67C1080.61 740.438 1195.57 675.125 1267.52 583.557C1293.07 551.041 1271.61 601.35 1266.23 611.864C1232.6 677.602 1184.35 737.503 1134.35 791.351C1042.24 890.548 947.872 964.405 808.829 964.405C678.095 964.405 548.802 926.62 424.121 890.423C350.907 869.167 320.024 844.908 275.514 785.561C182.039 660.928 214.546 528.979 232.411 386.057C237.464 345.633 302.712 257.067 341.776 248.386C419.206 231.179 431.68 283.501 498.103 305.642" stroke="#E28AA5" stroke-opacity="0.66" stroke-width="300" stroke-linecap="round"/>
</svg>
