<svg width="48" height="44" viewBox="0 0 48 44" fill="none" xmlns="http://www.w3.org/2000/svg">
<g filter="url(#filter0_d_40_304)">
<mask id="path-1-inside-1_40_304" fill="white">
<path fill-rule="evenodd" clip-rule="evenodd" d="M25.1166 5.49209L23.212 7.39664L20.8837 5.06836C16.7926 0.977211 10.1595 0.977212 6.06836 5.06837C1.97721 9.15952 1.97721 15.7926 6.06837 19.8837L8.39664 22.212L8.39635 22.2123L23.2117 37.0277L39.932 20.3075C44.0231 16.2163 44.0231 9.58324 39.932 5.49208C35.8408 1.40093 29.2077 1.40093 25.1166 5.49209Z"/>
</mask>
<path fill-rule="evenodd" clip-rule="evenodd" d="M25.1166 5.49209L23.212 7.39664L20.8837 5.06836C16.7926 0.977211 10.1595 0.977212 6.06836 5.06837C1.97721 9.15952 1.97721 15.7926 6.06837 19.8837L8.39664 22.212L8.39635 22.2123L23.2117 37.0277L39.932 20.3075C44.0231 16.2163 44.0231 9.58324 39.932 5.49208C35.8408 1.40093 29.2077 1.40093 25.1166 5.49209Z" fill="url(#paint0_linear_40_304)"/>
<path d="M23.212 7.39664L22.1514 8.4573L23.212 9.51796L24.2727 8.4573L23.212 7.39664ZM25.1166 5.49209L26.1772 6.55275L25.1166 5.49209ZM20.8837 5.06836L19.8231 6.12902L20.8837 5.06836ZM6.06836 5.06837L7.12902 6.12903L6.06836 5.06837ZM6.06837 19.8837L5.00771 20.9444H5.00771L6.06837 19.8837ZM8.39664 22.212L9.45818 23.2718L10.5171 22.2111L9.4573 21.1514L8.39664 22.212ZM8.39635 22.2123L7.33481 21.1525L6.27592 22.2132L7.33569 23.273L8.39635 22.2123ZM23.2117 37.0277L22.1511 38.0883L23.2117 39.149L24.2724 38.0883L23.2117 37.0277ZM39.932 20.3075L38.8713 19.2468L39.932 20.3075ZM39.932 5.49208L40.9926 4.43142V4.43142L39.932 5.49208ZM24.2727 8.4573L26.1772 6.55275L24.0559 4.43143L22.1514 6.33598L24.2727 8.4573ZM19.8231 6.12902L22.1514 8.4573L24.2727 6.33598L21.9444 4.0077L19.8231 6.12902ZM7.12902 6.12903C10.6344 2.62366 16.3177 2.62366 19.8231 6.12902L21.9444 4.0077C17.2675 -0.669236 9.68464 -0.669234 5.0077 4.00771L7.12902 6.12903ZM7.12903 18.8231C3.62366 15.3177 3.62366 9.63439 7.12902 6.12903L5.0077 4.00771C0.330765 8.68465 0.330765 16.2675 5.00771 20.9444L7.12903 18.8231ZM9.4573 21.1514L7.12903 18.8231L5.00771 20.9444L7.33598 23.2727L9.4573 21.1514ZM9.4579 23.2721L9.45818 23.2718L7.33509 21.1522L7.33481 21.1525L9.4579 23.2721ZM24.2724 35.967L9.45701 21.1516L7.33569 23.273L22.1511 38.0883L24.2724 35.967ZM38.8713 19.2468L22.1511 35.967L24.2724 38.0883L40.9926 21.3681L38.8713 19.2468ZM38.8713 6.55274C42.3767 10.0581 42.3767 15.7414 38.8713 19.2468L40.9926 21.3681C45.6696 16.6912 45.6696 9.10836 40.9926 4.43142L38.8713 6.55274ZM26.1772 6.55275C29.6826 3.04738 35.3659 3.04738 38.8713 6.55274L40.9926 4.43142C36.3157 -0.245517 28.7329 -0.245516 24.0559 4.43143L26.1772 6.55275Z" fill="#FF0000" fill-opacity="0.6" mask="url(#path-1-inside-1_40_304)"/>
<g filter="url(#filter1_b_40_304)">
<path fill-rule="evenodd" clip-rule="evenodd" d="M25.1166 5.49209L23.212 7.39664L20.8837 5.06836C16.7926 0.977211 10.1595 0.977212 6.06836 5.06837C1.97721 9.15952 1.97721 15.7926 6.06837 19.8837L8.39664 22.212L8.39635 22.2123L23.2117 37.0277L39.932 20.3075C44.0231 16.2163 44.0231 9.58324 39.932 5.49208C35.8408 1.40093 29.2077 1.40093 25.1166 5.49209Z" fill="url(#paint1_linear_40_304)"/>
</g>
</g>
<defs>
<filter id="filter0_d_40_304" x="0" y="0" width="48" height="43.0278" filterUnits="userSpaceOnUse" color-interpolation-filters="sRGB">
<feFlood flood-opacity="0" result="BackgroundImageFix"/>
<feColorMatrix in="SourceAlpha" type="matrix" values="0 0 0 0 0 0 0 0 0 0 0 0 0 0 0 0 0 0 127 0" result="hardAlpha"/>
<feOffset dx="1" dy="2"/>
<feGaussianBlur stdDeviation="2"/>
<feComposite in2="hardAlpha" operator="out"/>
<feColorMatrix type="matrix" values="0 0 0 0 0 0 0 0 0 0 0 0 0 0 0 0 0 0 0.25 0"/>
<feBlend mode="normal" in2="BackgroundImageFix" result="effect1_dropShadow_40_304"/>
<feBlend mode="normal" in="SourceGraphic" in2="effect1_dropShadow_40_304" result="shape"/>
</filter>
<filter id="filter1_b_40_304" x="-2" y="-3" width="50" height="45.0278" filterUnits="userSpaceOnUse" color-interpolation-filters="sRGB">
<feFlood flood-opacity="0" result="BackgroundImageFix"/>
<feGaussianBlur in="BackgroundImageFix" stdDeviation="2.5"/>
<feComposite in2="SourceAlpha" operator="in" result="effect1_backgroundBlur_40_304"/>
<feBlend mode="normal" in="SourceGraphic" in2="effect1_backgroundBlur_40_304" result="shape"/>
</filter>
<linearGradient id="paint0_linear_40_304" x1="0.647039" y1="4.35294" x2="41.8236" y2="33.765" gradientUnits="userSpaceOnUse">
<stop stop-color="#FF0000"/>
<stop offset="0.307292" stop-color="#AD30FA" stop-opacity="0.6"/>
<stop offset="0.692708" stop-color="white" stop-opacity="0.4"/>
<stop offset="1" stop-color="#DFE0FF" stop-opacity="0"/>
</linearGradient>
<linearGradient id="paint1_linear_40_304" x1="0.647039" y1="4.35294" x2="41.8236" y2="33.765" gradientUnits="userSpaceOnUse">
<stop stop-color="#FF8787"/>
<stop offset="0.0001" stop-color="#FF7373"/>
<stop offset="0.265625" stop-color="#FF8181" stop-opacity="0.7"/>
<stop offset="0.640625" stop-color="#FFB1B1" stop-opacity="0.391387"/>
<stop offset="1" stop-color="#FFDFDF" stop-opacity="0.1"/>
</linearGradient>
</defs>
</svg>
