<svg width="48" height="44" viewBox="0 0 48 44" fill="none" xmlns="http://www.w3.org/2000/svg">
<g filter="url(#filter0_d_40_271)">
<mask id="path-1-inside-1_40_271" fill="white">
<path fill-rule="evenodd" clip-rule="evenodd" d="M25.1166 5.49209L23.212 7.39664L20.8837 5.06836C16.7926 0.977211 10.1595 0.977212 6.06836 5.06837C1.97721 9.15952 1.97721 15.7926 6.06837 19.8837L8.39664 22.212L8.39635 22.2123L23.2117 37.0277L39.932 20.3075C44.0231 16.2163 44.0231 9.58324 39.932 5.49208C35.8408 1.40093 29.2077 1.40093 25.1166 5.49209Z"/>
</mask>
<path d="M23.212 7.39664L21.7978 8.81085L23.212 10.2251L24.6262 8.81085L23.212 7.39664ZM25.1166 5.49209L26.5308 6.9063L25.1166 5.49209ZM20.8837 5.06836L19.4695 6.48258L20.8837 5.06836ZM6.06836 5.06837L7.48258 6.48258H7.48258L6.06836 5.06837ZM6.06837 19.8837L4.65415 21.298H4.65415L6.06837 19.8837ZM8.39664 22.212L9.81203 23.6251L11.2239 22.2108L9.81085 20.7978L8.39664 22.212ZM8.39635 22.2123L6.98096 20.7993L5.56911 22.2135L6.98214 23.6265L8.39635 22.2123ZM23.2117 37.0277L21.7975 38.4419L23.2117 39.8561L24.6259 38.4419L23.2117 37.0277ZM39.932 20.3075L38.5177 18.8933L39.932 20.3075ZM39.932 5.49208L41.3462 4.07787V4.07787L39.932 5.49208ZM24.6262 8.81085L26.5308 6.9063L23.7024 4.07787L21.7978 5.98242L24.6262 8.81085ZM19.4695 6.48258L21.7978 8.81085L24.6262 5.98242L22.298 3.65415L19.4695 6.48258ZM7.48258 6.48258C10.7927 3.17247 16.1594 3.17247 19.4695 6.48258L22.298 3.65415C17.4258 -1.21805 9.52635 -1.21805 4.65415 3.65415L7.48258 6.48258ZM7.48258 18.4695C4.17247 15.1594 4.17247 9.79269 7.48258 6.48258L4.65415 3.65415C-0.218051 8.52636 -0.21805 16.4258 4.65415 21.298L7.48258 18.4695ZM9.81085 20.7978L7.48258 18.4695L4.65415 21.298L6.98243 23.6262L9.81085 20.7978ZM9.81175 23.6253L9.81203 23.6251L6.98125 20.799L6.98096 20.7993L9.81175 23.6253ZM24.6259 35.6135L9.81057 20.7981L6.98214 23.6265L21.7975 38.4419L24.6259 35.6135ZM38.5177 18.8933L21.7975 35.6135L24.6259 38.4419L41.3462 21.7217L38.5177 18.8933ZM38.5177 6.9063C41.8278 10.2164 41.8278 15.5831 38.5177 18.8933L41.3462 21.7217C46.2184 16.8495 46.2184 8.95007 41.3462 4.07787L38.5177 6.9063ZM26.5308 6.9063C29.8409 3.59619 35.2076 3.59619 38.5177 6.9063L41.3462 4.07787C36.474 -0.794332 28.5746 -0.794331 23.7024 4.07787L26.5308 6.9063Z" fill="url(#paint0_linear_40_271)" mask="url(#path-1-inside-1_40_271)"/>
<path d="M23.212 7.39664L21.7978 8.81085L23.212 10.2251L24.6262 8.81085L23.212 7.39664ZM25.1166 5.49209L26.5308 6.9063L25.1166 5.49209ZM20.8837 5.06836L19.4695 6.48258L20.8837 5.06836ZM6.06836 5.06837L7.48258 6.48258H7.48258L6.06836 5.06837ZM6.06837 19.8837L4.65415 21.298H4.65415L6.06837 19.8837ZM8.39664 22.212L9.81203 23.6251L11.2239 22.2108L9.81085 20.7978L8.39664 22.212ZM8.39635 22.2123L6.98096 20.7993L5.56911 22.2135L6.98214 23.6265L8.39635 22.2123ZM23.2117 37.0277L21.7975 38.4419L23.2117 39.8561L24.6259 38.4419L23.2117 37.0277ZM39.932 20.3075L38.5177 18.8933L39.932 20.3075ZM39.932 5.49208L41.3462 4.07787V4.07787L39.932 5.49208ZM24.6262 8.81085L26.5308 6.9063L23.7024 4.07787L21.7978 5.98242L24.6262 8.81085ZM19.4695 6.48258L21.7978 8.81085L24.6262 5.98242L22.298 3.65415L19.4695 6.48258ZM7.48258 6.48258C10.7927 3.17247 16.1594 3.17247 19.4695 6.48258L22.298 3.65415C17.4258 -1.21805 9.52635 -1.21805 4.65415 3.65415L7.48258 6.48258ZM7.48258 18.4695C4.17247 15.1594 4.17247 9.79269 7.48258 6.48258L4.65415 3.65415C-0.218051 8.52636 -0.21805 16.4258 4.65415 21.298L7.48258 18.4695ZM9.81085 20.7978L7.48258 18.4695L4.65415 21.298L6.98243 23.6262L9.81085 20.7978ZM9.81175 23.6253L9.81203 23.6251L6.98125 20.799L6.98096 20.7993L9.81175 23.6253ZM24.6259 35.6135L9.81057 20.7981L6.98214 23.6265L21.7975 38.4419L24.6259 35.6135ZM38.5177 18.8933L21.7975 35.6135L24.6259 38.4419L41.3462 21.7217L38.5177 18.8933ZM38.5177 6.9063C41.8278 10.2164 41.8278 15.5831 38.5177 18.8933L41.3462 21.7217C46.2184 16.8495 46.2184 8.95007 41.3462 4.07787L38.5177 6.9063ZM26.5308 6.9063C29.8409 3.59619 35.2076 3.59619 38.5177 6.9063L41.3462 4.07787C36.474 -0.794332 28.5746 -0.794331 23.7024 4.07787L26.5308 6.9063Z" fill="url(#paint1_linear_40_271)" fill-opacity="0.2" mask="url(#path-1-inside-1_40_271)"/>
<path d="M23.212 7.39664L21.7978 8.81085L23.212 10.2251L24.6262 8.81085L23.212 7.39664ZM25.1166 5.49209L26.5308 6.9063L25.1166 5.49209ZM20.8837 5.06836L19.4695 6.48258L20.8837 5.06836ZM6.06836 5.06837L7.48258 6.48258H7.48258L6.06836 5.06837ZM6.06837 19.8837L4.65415 21.298H4.65415L6.06837 19.8837ZM8.39664 22.212L9.81203 23.6251L11.2239 22.2108L9.81085 20.7978L8.39664 22.212ZM8.39635 22.2123L6.98096 20.7993L5.56911 22.2135L6.98214 23.6265L8.39635 22.2123ZM23.2117 37.0277L21.7975 38.4419L23.2117 39.8561L24.6259 38.4419L23.2117 37.0277ZM39.932 20.3075L38.5177 18.8933L39.932 20.3075ZM39.932 5.49208L41.3462 4.07787V4.07787L39.932 5.49208ZM24.6262 8.81085L26.5308 6.9063L23.7024 4.07787L21.7978 5.98242L24.6262 8.81085ZM19.4695 6.48258L21.7978 8.81085L24.6262 5.98242L22.298 3.65415L19.4695 6.48258ZM7.48258 6.48258C10.7927 3.17247 16.1594 3.17247 19.4695 6.48258L22.298 3.65415C17.4258 -1.21805 9.52635 -1.21805 4.65415 3.65415L7.48258 6.48258ZM7.48258 18.4695C4.17247 15.1594 4.17247 9.79269 7.48258 6.48258L4.65415 3.65415C-0.218051 8.52636 -0.21805 16.4258 4.65415 21.298L7.48258 18.4695ZM9.81085 20.7978L7.48258 18.4695L4.65415 21.298L6.98243 23.6262L9.81085 20.7978ZM9.81175 23.6253L9.81203 23.6251L6.98125 20.799L6.98096 20.7993L9.81175 23.6253ZM24.6259 35.6135L9.81057 20.7981L6.98214 23.6265L21.7975 38.4419L24.6259 35.6135ZM38.5177 18.8933L21.7975 35.6135L24.6259 38.4419L41.3462 21.7217L38.5177 18.8933ZM38.5177 6.9063C41.8278 10.2164 41.8278 15.5831 38.5177 18.8933L41.3462 21.7217C46.2184 16.8495 46.2184 8.95007 41.3462 4.07787L38.5177 6.9063ZM26.5308 6.9063C29.8409 3.59619 35.2076 3.59619 38.5177 6.9063L41.3462 4.07787C36.474 -0.794332 28.5746 -0.794331 23.7024 4.07787L26.5308 6.9063Z" fill="#FF005C" fill-opacity="0.1" mask="url(#path-1-inside-1_40_271)"/>
<g filter="url(#filter1_b_40_271)">
<mask id="path-3-inside-2_40_271" fill="white">
<path fill-rule="evenodd" clip-rule="evenodd" d="M25.1166 5.49209L23.212 7.39664L20.8837 5.06836C16.7926 0.977211 10.1595 0.977212 6.06836 5.06837C1.97721 9.15952 1.97721 15.7926 6.06837 19.8837L8.39664 22.212L8.39635 22.2123L23.2117 37.0277L39.932 20.3075C44.0231 16.2163 44.0231 9.58324 39.932 5.49208C35.8408 1.40093 29.2077 1.40093 25.1166 5.49209Z"/>
</mask>
<path d="M23.212 7.39664L21.7978 8.81085L23.212 10.2251L24.6262 8.81085L23.212 7.39664ZM25.1166 5.49209L26.5308 6.9063L25.1166 5.49209ZM20.8837 5.06836L19.4695 6.48258L20.8837 5.06836ZM6.06836 5.06837L7.48258 6.48258H7.48258L6.06836 5.06837ZM6.06837 19.8837L4.65415 21.298H4.65415L6.06837 19.8837ZM8.39664 22.212L9.81203 23.6251L11.2239 22.2108L9.81085 20.7978L8.39664 22.212ZM8.39635 22.2123L6.98096 20.7993L5.56911 22.2135L6.98214 23.6265L8.39635 22.2123ZM23.2117 37.0277L21.7975 38.4419L23.2117 39.8561L24.6259 38.4419L23.2117 37.0277ZM39.932 20.3075L38.5177 18.8933L39.932 20.3075ZM39.932 5.49208L41.3462 4.07787V4.07787L39.932 5.49208ZM24.6262 8.81085L26.5308 6.9063L23.7024 4.07787L21.7978 5.98242L24.6262 8.81085ZM19.4695 6.48258L21.7978 8.81085L24.6262 5.98242L22.298 3.65415L19.4695 6.48258ZM7.48258 6.48258C10.7927 3.17247 16.1594 3.17247 19.4695 6.48258L22.298 3.65415C17.4258 -1.21805 9.52635 -1.21805 4.65415 3.65415L7.48258 6.48258ZM7.48258 18.4695C4.17247 15.1594 4.17247 9.79269 7.48258 6.48258L4.65415 3.65415C-0.218051 8.52636 -0.21805 16.4258 4.65415 21.298L7.48258 18.4695ZM9.81085 20.7978L7.48258 18.4695L4.65415 21.298L6.98243 23.6262L9.81085 20.7978ZM9.81175 23.6253L9.81203 23.6251L6.98125 20.799L6.98096 20.7993L9.81175 23.6253ZM24.6259 35.6135L9.81057 20.7981L6.98214 23.6265L21.7975 38.4419L24.6259 35.6135ZM38.5177 18.8933L21.7975 35.6135L24.6259 38.4419L41.3462 21.7217L38.5177 18.8933ZM38.5177 6.9063C41.8278 10.2164 41.8278 15.5831 38.5177 18.8933L41.3462 21.7217C46.2184 16.8495 46.2184 8.95007 41.3462 4.07787L38.5177 6.9063ZM26.5308 6.9063C29.8409 3.59619 35.2076 3.59619 38.5177 6.9063L41.3462 4.07787C36.474 -0.794332 28.5746 -0.794331 23.7024 4.07787L26.5308 6.9063Z" fill="url(#paint2_linear_40_271)" mask="url(#path-3-inside-2_40_271)"/>
<path d="M23.212 7.39664L21.7978 8.81085L23.212 10.2251L24.6262 8.81085L23.212 7.39664ZM25.1166 5.49209L26.5308 6.9063L25.1166 5.49209ZM20.8837 5.06836L19.4695 6.48258L20.8837 5.06836ZM6.06836 5.06837L7.48258 6.48258H7.48258L6.06836 5.06837ZM6.06837 19.8837L4.65415 21.298H4.65415L6.06837 19.8837ZM8.39664 22.212L9.81203 23.6251L11.2239 22.2108L9.81085 20.7978L8.39664 22.212ZM8.39635 22.2123L6.98096 20.7993L5.56911 22.2135L6.98214 23.6265L8.39635 22.2123ZM23.2117 37.0277L21.7975 38.4419L23.2117 39.8561L24.6259 38.4419L23.2117 37.0277ZM39.932 20.3075L38.5177 18.8933L39.932 20.3075ZM39.932 5.49208L41.3462 4.07787V4.07787L39.932 5.49208ZM24.6262 8.81085L26.5308 6.9063L23.7024 4.07787L21.7978 5.98242L24.6262 8.81085ZM19.4695 6.48258L21.7978 8.81085L24.6262 5.98242L22.298 3.65415L19.4695 6.48258ZM7.48258 6.48258C10.7927 3.17247 16.1594 3.17247 19.4695 6.48258L22.298 3.65415C17.4258 -1.21805 9.52635 -1.21805 4.65415 3.65415L7.48258 6.48258ZM7.48258 18.4695C4.17247 15.1594 4.17247 9.79269 7.48258 6.48258L4.65415 3.65415C-0.218051 8.52636 -0.21805 16.4258 4.65415 21.298L7.48258 18.4695ZM9.81085 20.7978L7.48258 18.4695L4.65415 21.298L6.98243 23.6262L9.81085 20.7978ZM9.81175 23.6253L9.81203 23.6251L6.98125 20.799L6.98096 20.7993L9.81175 23.6253ZM24.6259 35.6135L9.81057 20.7981L6.98214 23.6265L21.7975 38.4419L24.6259 35.6135ZM38.5177 18.8933L21.7975 35.6135L24.6259 38.4419L41.3462 21.7217L38.5177 18.8933ZM38.5177 6.9063C41.8278 10.2164 41.8278 15.5831 38.5177 18.8933L41.3462 21.7217C46.2184 16.8495 46.2184 8.95007 41.3462 4.07787L38.5177 6.9063ZM26.5308 6.9063C29.8409 3.59619 35.2076 3.59619 38.5177 6.9063L41.3462 4.07787C36.474 -0.794332 28.5746 -0.794331 23.7024 4.07787L26.5308 6.9063Z" fill="url(#paint3_linear_40_271)" fill-opacity="0.2" mask="url(#path-3-inside-2_40_271)"/>
</g>
</g>
<defs>
<filter id="filter0_d_40_271" x="0" y="0" width="48" height="43.0276" filterUnits="userSpaceOnUse" color-interpolation-filters="sRGB">
<feFlood flood-opacity="0" result="BackgroundImageFix"/>
<feColorMatrix in="SourceAlpha" type="matrix" values="0 0 0 0 0 0 0 0 0 0 0 0 0 0 0 0 0 0 127 0" result="hardAlpha"/>
<feOffset dx="1" dy="2"/>
<feGaussianBlur stdDeviation="2"/>
<feComposite in2="hardAlpha" operator="out"/>
<feColorMatrix type="matrix" values="0 0 0 0 0 0 0 0 0 0 0 0 0 0 0 0 0 0 0.25 0"/>
<feBlend mode="normal" in2="BackgroundImageFix" result="effect1_dropShadow_40_271"/>
<feBlend mode="normal" in="SourceGraphic" in2="effect1_dropShadow_40_271" result="shape"/>
</filter>
<filter id="filter1_b_40_271" x="-2" y="-3" width="50" height="45.0276" filterUnits="userSpaceOnUse" color-interpolation-filters="sRGB">
<feFlood flood-opacity="0" result="BackgroundImageFix"/>
<feGaussianBlur in="BackgroundImageFix" stdDeviation="2.5"/>
<feComposite in2="SourceAlpha" operator="in" result="effect1_backgroundBlur_40_271"/>
<feBlend mode="normal" in="SourceGraphic" in2="effect1_backgroundBlur_40_271" result="shape"/>
</filter>
<linearGradient id="paint0_linear_40_271" x1="4" y1="3" x2="35.5008" y2="32.9992" gradientUnits="userSpaceOnUse">
<stop stop-color="#FF1616"/>
<stop offset="0.352169" stop-color="#DEA8FF" stop-opacity="0.4"/>
<stop offset="0.640625" stop-color="#FFF4D7" stop-opacity="0.37"/>
<stop offset="1" stop-color="#FF0099" stop-opacity="0.1"/>
</linearGradient>
<linearGradient id="paint1_linear_40_271" x1="4.75699" y1="19.5704" x2="39.8968" y2="19.5704" gradientUnits="userSpaceOnUse">
<stop stop-color="#FC3C3C" stop-opacity="0"/>
<stop offset="1" stop-color="white" stop-opacity="0.6"/>
</linearGradient>
<linearGradient id="paint2_linear_40_271" x1="4" y1="3" x2="36.3836" y2="30.1118" gradientUnits="userSpaceOnUse">
<stop stop-color="#FF4444"/>
<stop offset="0.395833" stop-color="#D899FF" stop-opacity="0.4"/>
<stop offset="0.708333" stop-color="#FFF4D9" stop-opacity="0.332031"/>
<stop offset="1" stop-color="#FF0099" stop-opacity="0.1"/>
</linearGradient>
<linearGradient id="paint3_linear_40_271" x1="4.75699" y1="19.5704" x2="39.8968" y2="19.5704" gradientUnits="userSpaceOnUse">
<stop stop-color="#FC3C3C" stop-opacity="0"/>
<stop offset="1" stop-color="white" stop-opacity="0.6"/>
</linearGradient>
</defs>
</svg>
